<svg width="60" height="66" viewBox="0 0 60 66" fill="none" xmlns="http://www.w3.org/2000/svg">
<g id="Icon Open/Close button">
<path id="Polygon 2" d="M54.0092 27.2354C57.2799 30.3826 57.2799 35.6174 54.0092 38.7646L28.547 63.2657C23.4646 68.1562 15 64.5543 15 57.501L15 8.49895C15 1.44567 23.4646 -2.15623 28.547 2.73434L54.0092 27.2354Z" fill="white"/>
<path id="Vector" d="M26.184 49.9257C27.7622 51.595 30.4189 51.595 31.9971 49.9257L45.4015 35.748C46.8594 34.2061 46.8594 31.794 45.4015 30.252L31.9971 16.0743C30.4189 14.405 27.7622 14.405 26.184 16.0743L24.5978 17.752C23.1399 19.2939 23.1399 21.7061 24.5978 23.248L31.2197 30.252C32.6776 31.7939 32.6776 34.2061 31.2197 35.748L24.5978 42.752C23.1399 44.2939 23.1399 46.7061 24.5978 48.248L26.184 49.9257Z" fill="#8D39C0"/>
</g>
</svg>
